<?xml version="1.0" encoding="utf-8"?>
<!-- Generator: Adobe Illustrator 27.3.1, SVG Export Plug-In . SVG Version: 6.00 Build 0)  -->
<svg version="1.1" id="Layer_1" xmlns="http://www.w3.org/2000/svg" xmlns:xlink="http://www.w3.org/1999/xlink" x="0px" y="0px"
	 viewBox="0 0 1024 1024" style="enable-background:new 0 0 1024 1024;" xml:space="preserve">
<style type="text/css">
	.st0{fill:url(#SVGID_1_);}
</style>
<circle cx="512" cy="512" r="465.143"/>
<linearGradient id="SVGID_1_" gradientUnits="userSpaceOnUse" x1="135.5714" y1="553.3229" x2="862.6429" y2="553.3229">
	<stop  offset="0" style="stop-color:#E7AA39"/>
	<stop  offset="0.2327" style="stop-color:#F7FC97"/>
	<stop  offset="0.4456" style="stop-color:#E7AA39"/>
	<stop  offset="0.6682" style="stop-color:#F7FC97"/>
	<stop  offset="0.8333" style="stop-color:#B56F14"/>
	<stop  offset="1" style="stop-color:#E7AA39"/>
</linearGradient>
<path class="st0" d="M815.565,500.813c0,0,81.291-89.458,30.233-197.244c-51.042-107.786-167.686-134.768-248.977-81.794
	c-81.291,52.99-81.291,52.99-81.291,52.99l-11.779,8.559c0,0-88.374-91.625-200.652-24.689
	C190.821,325.588,122.031,390.53,137.815,489.913c12.784,80.443,116.785,168.283,210.986,78.118
	c86.411-63.183,174.424-131.061,174.424-131.061s62.35-56.272,94.766,14.669c36.217,79.265,22.993,143.845-32.212,202.772
	c-51.357,54.796-155.028,151.054-278.911,50.022l117.932-71.475c0-0.031-0.047-0.236-1.052-2.073
	c-3.22-5.937-13.994-25.129-13.994-25.129l-154.258,93.949c0,0,59.194,101.143,189.202,79.453
	c130.025-21.673,219.671-157.211,222.733-214.912c3.047-57.701-4.036-47.964,7.193-63.434c11.229-15.47,42.185-59.476,42.185-59.476
	s33.939-32.934,11.512-84.73c-22.412-51.781-77.082-45.781-124.826-13.585c-47.76,32.212-187.553,136.228-187.553,136.228
	l-96.871,72.841c0,0-79.375,64.737-137.029-41.682C114.006,384.845,331.682,278.77,331.682,278.77s70.894-40.378,145.322,24.139
	L362.81,386.022l17.779,23.385L594.841,256.61c0,0,87.369-53.964,163.823-9.266c76.469,44.697,109.451,153.064,12.187,263.442
	c-38.195,47.116-120.884,145.102-120.884,145.102l10.208,20.778c11.402,26.024,42.499,93.997,42.499,93.997l-98.159,86.332
	c0,0,1.539,8.512-19.899-42.797c-0.126-0.298-0.314-0.738-0.565-1.319L554.29,832.29l36.719,78.872L743.43,775.374l-11.245-22.176
	c-12.721-25.066-37.504-77.914-39.954-83.144c-0.157-0.345-0.251-0.707-0.393-1.068c-0.989-2.497-2.513-12.077,5.513-21.296
	C709.836,633.35,815.565,500.813,815.565,500.813z M695.293,359.7c25.003,32.966-4.319,65.177-37.834,113.707
	c0.11-0.298,0.078-3.345-11.308-34.081c-13.664-36.892-47.619-56.021-56.162-51.341C589.988,387.986,670.29,326.735,695.293,359.7z"
	/>
<g>
</g>
<g>
</g>
<g>
</g>
<g>
</g>
<g>
</g>
<g>
</g>
</svg>
