<?xml version="1.0" encoding="utf-8"?>
<!-- Generator: Adobe Illustrator 27.3.1, SVG Export Plug-In . SVG Version: 6.00 Build 0)  -->
<svg version="1.1" id="Layer_1" xmlns="http://www.w3.org/2000/svg" xmlns:xlink="http://www.w3.org/1999/xlink" x="0px" y="0px"
	 viewBox="0 0 500 500" style="enable-background:new 0 0 500 500;" xml:space="preserve">
<style type="text/css">
	.st0{fill:url(#SVGID_1_);}
</style>
<linearGradient id="SVGID_1_" gradientUnits="userSpaceOnUse" x1="18.9406" y1="250" x2="481.0594" y2="250">
	<stop  offset="0" style="stop-color:#E7AA39"/>
	<stop  offset="0.2327" style="stop-color:#F7FC97"/>
	<stop  offset="0.4456" style="stop-color:#E7AA39"/>
	<stop  offset="0.6682" style="stop-color:#F7FC97"/>
	<stop  offset="0.8333" style="stop-color:#B56F14"/>
	<stop  offset="1" style="stop-color:#E7AA39"/>
</linearGradient>
<path class="st0" d="M451.137,216.342c0,0,51.668-57.341,19.216-126.43C437.911,20.822,363.773,3.527,312.105,37.483
	c-51.668,33.966-51.668,33.966-51.668,33.966l-7.487,5.486c0,0-56.17-58.73-127.532-15.825
	C54.057,104.025,10.335,145.652,20.367,209.355c8.125,51.563,74.227,107.867,134.1,50.073
	c54.922-40.499,110.862-84.008,110.862-84.008s39.629-36.07,60.232,9.402c23.019,50.808,14.614,92.203-20.473,129.974
	c-32.642,35.124-98.534,96.824-177.273,32.063l74.956-45.815c0-0.02-0.03-0.151-0.669-1.329c-2.046-3.805-8.894-16.107-8.894-16.107
	l-98.045,60.22c0,0,37.623,64.831,120.255,50.929c82.642-13.892,139.621-100.77,141.567-137.756
	c1.937-36.986-2.565-30.744,4.572-40.66c7.137-9.916,26.812-38.123,26.812-38.123s21.572-21.11,7.317-54.311
	c-14.245-33.191-48.992-29.345-79.338-8.708c-30.356,20.647-119.207,87.32-119.207,87.32l-61.57,46.69
	c0,0-50.45,41.496-87.094-26.718c-43.243-80.485,95.11-148.477,95.11-148.477s45.059-25.882,92.365,15.473l-72.58,53.274l11.3,14.99
	l136.177-97.941c0,0,55.531-34.59,104.124-5.94c48.603,28.65,69.566,98.112,7.746,168.863
	c-24.277,30.201-76.833,93.008-76.833,93.008l6.488,13.319c7.247,16.681,27.012,60.251,27.012,60.251l-62.388,55.338
	c0,0,0.978,5.456-12.647-27.432c-0.08-0.191-0.2-0.473-0.359-0.846l-18.916,12.443l23.338,50.556l96.877-87.039l-7.147-14.215
	c-8.086-16.067-23.837-49.942-25.395-53.294c-0.1-0.221-0.16-0.453-0.25-0.685c-0.629-1.601-1.597-7.741,3.504-13.651
	C383.937,301.297,451.137,216.342,451.137,216.342z M374.694,125.89c15.892,21.13-2.745,41.778-24.047,72.884
	c0.07-0.191,0.05-2.144-7.187-21.845c-8.684-23.647-30.266-35.909-35.696-32.909C307.763,144.021,358.802,104.76,374.694,125.89z"/>
<g>
</g>
<g>
</g>
<g>
</g>
<g>
</g>
<g>
</g>
<g>
</g>
<g>
</g>
<g>
</g>
<g>
</g>
<g>
</g>
<g>
</g>
<g>
</g>
<g>
</g>
<g>
</g>
<g>
</g>
</svg>
